<svg width="800" height="585" viewBox="0 0 800 585" fill="none" xmlns="http://www.w3.org/2000/svg">
<rect y="1" width="800" height="584" fill="#FFF9ED" fill-opacity="0.9"/>
<path d="M729.978 11.5254H738.986V16.1543H735.427V34.333H738.986V38.9619H729.978V11.5254ZM740.92 22.1748C740.92 18.0928 741.652 15.2363 743.117 13.6055C744.592 11.9746 746.833 11.1592 749.841 11.1592C751.286 11.1592 752.473 11.3398 753.4 11.7012C754.328 12.0527 755.085 12.5166 755.671 13.0928C756.257 13.6592 756.716 14.2598 757.048 14.8945C757.39 15.5195 757.663 16.252 757.868 17.0918C758.269 18.6934 758.469 20.3633 758.469 22.1016C758.469 25.998 757.81 28.8496 756.491 30.6562C755.173 32.4629 752.902 33.3662 749.68 33.3662C747.873 33.3662 746.413 33.0781 745.3 32.502C744.187 31.9258 743.273 31.0811 742.561 29.9678C742.043 29.1768 741.638 28.0977 741.345 26.7305C741.062 25.3535 740.92 23.835 740.92 22.1748ZM746.838 22.1895C746.838 24.9238 747.077 26.7939 747.556 27.7998C748.044 28.7959 748.747 29.2939 749.665 29.2939C750.271 29.2939 750.793 29.084 751.232 28.6641C751.682 28.2344 752.009 27.5605 752.214 26.6426C752.429 25.7246 752.536 24.2939 752.536 22.3506C752.536 19.499 752.292 17.585 751.804 16.6084C751.325 15.6221 750.603 15.1289 749.636 15.1289C748.649 15.1289 747.937 15.6318 747.497 16.6377C747.058 17.6338 746.838 19.4844 746.838 22.1895ZM774.45 11.1592V33H768.415V18.6885C767.438 19.4307 766.491 20.0312 765.573 20.4902C764.665 20.9492 763.522 21.3887 762.146 21.8086V16.916C764.177 16.2617 765.754 15.4756 766.877 14.5576C768 13.6396 768.879 12.5068 769.514 11.1592H774.45ZM789.406 11.5254V38.9619H780.397V34.333H783.957V16.1543H780.397V11.5254H789.406Z" fill="#2F2B27" fill-opacity="0.1"/>
</svg>
