<svg width="80" height="77" viewBox="0 0 80 77" fill="none" xmlns="http://www.w3.org/2000/svg">
<g filter="url(#filter0_di_283_849)">
<path d="M33.6008 18.0157C35.6699 17.8272 37.3829 19.3905 37.1746 19.9268C36.9865 20.4113 35.8959 21.0081 34.5682 21.138C33.6278 21.23 32.2305 21.0685 32.2305 21.0685L30.0003 19.8034C30.0003 19.8034 31.6124 18.1967 33.6008 18.0157Z" fill="#C38322"/>
<path d="M42.8634 27.8731C41.9238 28.1036 41.4344 28.4519 40.2171 28.7567C38.894 28.4494 36.9572 28.142 34.2534 27.1816C31.2712 26.1223 28.6453 24.0089 28.4955 22.522C28.3039 20.6206 30.1346 19.6958 30.1346 19.6958L32.2036 21.0685C32.2036 21.0685 30.5179 21.6624 30.9945 22.8181C31.471 23.9738 33.448 24.8574 35.3464 25.5489C37.5405 26.3481 42.1731 27.5101 42.8634 27.8731Z" fill="#C38322"/>
<path d="M40.3991 44.863L39.4586 45.3206C39.4586 45.3206 34.6179 42.5483 34.4068 40.032C34.1652 37.1519 37.4971 36.1958 39.0556 35.6574C41.2898 34.8857 43.8726 33.2154 43.731 31.6199C43.5895 30.0244 42.2881 29.2377 40.2171 28.7567C41.4344 28.4519 41.9238 28.1036 42.8634 27.8731C43.731 28.1997 45.6926 29.7555 45.6926 31.6199C45.6926 34.6473 42.7368 36.2496 39.0556 37.4608C37.6284 37.9305 35.9793 38.3801 35.9793 40.1281C35.9793 41.876 40.3991 44.863 40.3991 44.863Z" fill="#C38322"/>
<path d="M42.6294 48.0661C42.5589 49.4491 40.6409 51 40.6409 51C40.6409 51 42.1159 49.3197 41.9845 48.0661C41.8486 46.7696 39.4586 45.3206 39.4586 45.3206L40.3991 44.863C40.3991 44.863 42.7026 46.6272 42.6294 48.0661Z" fill="#C38322"/>
<path d="M45.5973 18.0157C43.5283 17.8272 41.8153 19.3905 42.0235 19.9268C42.2116 20.4113 43.3022 21.0081 44.63 21.138C45.5704 21.23 46.9676 21.0685 46.9676 21.0685L49.1979 19.8034C49.1979 19.8034 47.5857 18.1967 45.5973 18.0157Z" fill="#FFF8EC"/>
<path d="M36.3347 27.8731C37.2743 28.1036 37.7638 28.4519 38.981 28.7567C40.3041 28.4494 42.2409 28.142 44.9447 27.1816C47.927 26.1223 50.5528 24.0089 50.7026 22.522C50.8942 20.6206 49.0635 19.6958 49.0635 19.6958L46.9945 21.0685C46.9945 21.0685 48.6802 21.6624 48.2037 22.8181C47.7271 23.9738 45.7501 24.8574 43.8517 25.5489C41.6577 26.3481 37.0251 27.5101 36.3347 27.8731Z" fill="#FFF8EC"/>
<path d="M38.799 44.863L39.7395 45.3206C39.7395 45.3206 44.5802 42.5483 44.7913 40.032C45.0329 37.1519 41.701 36.1958 40.1425 35.6574C37.9083 34.8857 35.3255 33.2154 35.4671 31.6199C35.6087 30.0244 36.91 29.2377 38.981 28.7567C37.7638 28.4519 37.2743 28.1036 36.3347 27.8731C35.4671 28.1997 33.5056 29.7555 33.5056 31.6199C33.5056 34.6473 36.4613 36.2496 40.1425 37.4608C41.5698 37.9305 43.2189 38.3801 43.2189 40.1281C43.2189 41.876 38.799 44.863 38.799 44.863Z" fill="#FFF8EC"/>
<path d="M36.5688 48.0661C36.6392 49.4491 38.5572 51 38.5572 51C38.5572 51 37.0823 49.3197 37.2137 48.0661C37.3496 46.7696 39.7395 45.3206 39.7395 45.3206L38.799 44.863C38.799 44.863 36.4955 46.6272 36.5688 48.0661Z" fill="#FFF8EC"/>
<path d="M39.6035 49.9435H32.2783C32.2783 49.9435 31.8756 49.8859 31.8756 49.4441C31.8756 49.0023 32.24 48.9086 32.2783 48.9063C33.8891 48.8102 36.3628 48.9063 37.916 47.9267C38.4243 47.6061 38.7406 46.6589 38.7598 45.2567C38.7598 44.4692 38.7981 25.1071 38.7981 25.1071C38.7981 25.1071 36.9189 25.2668 35.0013 25.5873C32.0471 26.081 29.7471 27.4505 27.561 27.4505C27.0521 27.4505 26.5138 27.1432 26.4872 26.7398C26.4542 26.2404 26.7556 25.8754 27.1967 25.8754C27.3885 25.8754 27.5035 25.9523 27.561 26.1828C27.6185 26.4133 27.4614 26.5465 27.561 26.7398C27.8678 27.3353 32.0674 24.8958 35.0013 23.9546C36.4804 23.4801 38.7981 23.2439 38.7981 23.2439C38.7981 23.2439 39.3503 22.0571 39.2775 21.2654C39.2245 20.689 38.7418 20.4393 38.7981 19.8632C38.8571 19.2602 39.6035 18.5378 39.6035 18.5378V49.9435Z" fill="#FFF8EC"/>
<path d="M33.5439 39.7055H22C22 39.7055 23.63 42.4331 27.8678 42.3754C32.1057 42.3178 33.5439 39.7055 33.5439 39.7055Z" fill="#FFF8EC"/>
<path d="M22.0192 39.7055L27.4268 27.4505H27.772V27.8539L22.5178 39.7055H22.0192Z" fill="#FFF8EC"/>
<path d="M33.5439 39.7055L28.1363 27.4505H27.7911V27.8539L33.0453 39.7055H33.5439Z" fill="#FFF8EC"/>
<path d="M39.6035 49.9435H46.9287C46.9287 49.9435 47.3314 49.8859 47.3314 49.4441C47.3314 49.0023 46.967 48.9086 46.9287 48.9063C45.3179 48.8102 42.8442 48.9063 41.291 47.9267C40.7827 47.6061 40.4664 46.6589 40.4472 45.2567C40.4472 44.4692 40.4089 25.1071 40.4089 25.1071C40.4089 25.1071 42.2881 25.2668 44.2057 25.5873C47.1599 26.081 49.4599 27.4505 51.646 27.4505C52.1549 27.4505 52.6932 27.1432 52.7198 26.7398C52.7528 26.2404 52.4514 25.8754 52.0103 25.8754C51.8186 25.8754 51.7035 25.9523 51.646 26.1828C51.5885 26.4133 51.7456 26.5465 51.646 26.7398C51.3392 27.3353 47.1396 24.8958 44.2057 23.9546C42.7266 23.4801 40.4089 23.2439 40.4089 23.2439C40.4089 23.2439 39.8567 22.0571 39.9295 21.2654C39.9825 20.689 40.4653 20.4393 40.4089 19.8632C40.3499 19.2602 39.6035 18.5378 39.6035 18.5378V49.9435Z" fill="#FFF8EC"/>
<path d="M45.6631 39.7055H57.207C57.207 39.7055 55.577 42.4331 51.3392 42.3754C47.1013 42.3178 45.6631 39.7055 45.6631 39.7055Z" fill="#FFF8EC"/>
<path d="M57.1878 39.7055L51.7802 27.4505H51.4351V27.8539L56.6893 39.7055H57.1878Z" fill="#FFF8EC"/>
<path d="M45.6631 39.7055L51.0707 27.4505H51.4159V27.8539L46.1617 39.7055H45.6631Z" fill="#FFF8EC"/>
</g>
<defs>
<filter id="filter0_di_283_849" x="0.1" y="0.1" width="79.007" height="76.8" filterUnits="userSpaceOnUse" color-interpolation-filters="sRGB">
<feFlood flood-opacity="0" result="BackgroundImageFix"/>
<feColorMatrix in="SourceAlpha" type="matrix" values="0 0 0 0 0 0 0 0 0 0 0 0 0 0 0 0 0 0 127 0" result="hardAlpha"/>
<feOffset dy="4"/>
<feGaussianBlur stdDeviation="10.95"/>
<feComposite in2="hardAlpha" operator="out"/>
<feColorMatrix type="matrix" values="0 0 0 0 0.184314 0 0 0 0 0.168627 0 0 0 0 0.152941 0 0 0 1 0"/>
<feBlend mode="normal" in2="BackgroundImageFix" result="effect1_dropShadow_283_849"/>
<feBlend mode="normal" in="SourceGraphic" in2="effect1_dropShadow_283_849" result="shape"/>
<feColorMatrix in="SourceAlpha" type="matrix" values="0 0 0 0 0 0 0 0 0 0 0 0 0 0 0 0 0 0 127 0" result="hardAlpha"/>
<feOffset dy="4"/>
<feGaussianBlur stdDeviation="2.5"/>
<feComposite in2="hardAlpha" operator="arithmetic" k2="-1" k3="1"/>
<feColorMatrix type="matrix" values="0 0 0 0 0.184314 0 0 0 0 0.168627 0 0 0 0 0.152941 0 0 0 0.3 0"/>
<feBlend mode="normal" in2="shape" result="effect2_innerShadow_283_849"/>
</filter>
</defs>
</svg>
